<?xml version="1.0" encoding="UTF-8"?>
<svg width="331px" height="97px" viewBox="0 0 331 97" version="1.1" xmlns="http://www.w3.org/2000/svg" xmlns:xlink="http://www.w3.org/1999/xlink">
    <!-- Generator: Sketch 53.2 (72643) - https://sketchapp.com -->
    <title>logo alpega quer</title>
    <desc>Created with Sketch.</desc>
    <g id="Page-1" stroke="none" stroke-width="1" fill="none" fill-rule="evenodd">
        <g id="logo-alpega-quer" fill-rule="nonzero">
            <g id="Group">
                <path d="M177.4,58.7 L175.8,58.7 C175.3,58.7 175,58.8 174.8,59 C174.6,59.2 174.5,59.6 174.5,60 L174.3,62.7 C173.9,62.1 173.4,61.6 173,61 C172.5,60.5 172,60 171.3,59.6 C170.7,59.2 169.9,58.9 169.1,58.6 C168.3,58.4 167.3,58.2 166.2,58.2 C164.3,58.2 162.6,58.6 161,59.3 C159.4,60 158.1,61 156.9,62.2 C155.8,63.4 154.9,64.9 154.3,66.5 C153.7,68.2 153.4,69.9 153.4,71.8 C153.4,73.7 153.7,75.5 154.4,77.1 C155,78.8 155.9,80.2 157,81.4 C158.1,82.6 159.5,83.6 161.1,84.3 C162.7,85 164.4,85.4 166.3,85.4 C167.4,85.4 168.3,85.3 169.1,85.1 C169.9,84.9 170.7,84.6 171.3,84.2 C171.9,83.8 172.5,83.3 173,82.8 C173.5,82.3 173.9,81.7 174.4,81.1 L174.4,83.6 C174.4,84 174.5,84.3 174.7,84.6 C174.9,84.8 175.2,85 175.7,85 L177.4,85 C177.8,85 178.1,84.9 178.4,84.7 C178.7,84.5 178.8,84.2 178.8,83.8 L178.8,60 C178.8,59.6 178.7,59.2 178.4,59 C178.1,58.9 177.8,58.7 177.4,58.7 M173.8,75.7 C173.4,76.8 172.9,77.8 172.2,78.6 C171.5,79.4 170.7,80 169.7,80.5 C168.7,81 167.6,81.2 166.3,81.2 C165,81.2 163.9,81 162.9,80.5 C161.9,80 161,79.4 160.3,78.5 C159.6,77.7 159,76.7 158.6,75.6 C158.2,74.5 158,73.3 158,72 C158,70.8 158.2,69.6 158.6,68.5 C159,67.4 159.5,66.4 160.3,65.6 C161,64.8 161.9,64.1 162.9,63.6 C163.9,63.1 165.1,62.9 166.4,62.9 C167.7,62.9 168.9,63.2 169.9,63.6 C170.9,64.1 171.8,64.8 172.4,65.6 C173.1,66.4 173.6,67.4 174,68.5 C174.3,69.6 174.5,70.8 174.5,72.1 C174.4,73.4 174.2,74.6 173.8,75.7" id="Shape" fill="#03475E"></path>
                <path d="M193.6,45.3 L191.4,45.3 C191,45.3 190.7,45.4 190.5,45.6 C190.3,45.8 190.2,46.1 190.2,46.5 L190.2,83.9 C190.2,84.7 190.6,85.1 191.4,85.1 L193.6,85.1 C194,85.1 194.3,85 194.5,84.8 C194.7,84.6 194.8,84.3 194.8,83.9 L194.8,46.5 C194.8,46.1 194.7,45.9 194.5,45.6 C194.2,45.4 193.9,45.3 193.6,45.3" id="Path" fill="#03475E"></path>
                <path d="M227.4,62.2 C226.3,61 225,60 223.5,59.3 C222,58.6 220.4,58.2 218.7,58.2 C217.8,58.2 217,58.3 216.2,58.5 C215.4,58.7 214.7,59 214,59.4 C213.3,59.8 212.7,60.2 212.1,60.8 C211.5,61.3 211,61.9 210.6,62.5 L210.4,60.1 C210.4,59.7 210.2,59.4 209.9,59.1 C209.6,58.9 209.3,58.7 208.8,58.7 L207.4,58.7 C206.9,58.7 206.6,58.8 206.3,59.1 C206,59.3 205.9,59.7 205.9,60.1 L205.9,94 C205.9,94.4 206,94.7 206.3,95 C206.6,95.2 207,95.4 207.4,95.4 L209,95.4 C209.5,95.4 209.9,95.3 210.1,95 C210.4,94.8 210.5,94.4 210.5,94 L210.5,81.4 C211.3,82.6 212.4,83.6 213.7,84.4 C215,85.1 216.6,85.5 218.4,85.5 C220.1,85.5 221.7,85.1 223.2,84.4 C224.7,83.7 226,82.7 227.1,81.5 C228.2,80.3 229.1,78.8 229.7,77.2 C230.3,75.5 230.7,73.8 230.7,71.9 C230.7,70 230.4,68.2 229.7,66.6 C229.4,64.9 228.6,63.4 227.4,62.2 M225.6,75.5 C225.2,76.6 224.7,77.6 224,78.4 C223.3,79.2 222.5,79.9 221.6,80.4 C220.7,80.9 219.7,81.1 218.6,81.1 C217.5,81.1 216.5,80.9 215.5,80.4 C214.6,79.9 213.7,79.3 213,78.4 C212.3,77.6 211.7,76.6 211.3,75.5 C210.9,74.4 210.7,73.2 210.7,71.9 L210.7,71.8 C210.7,70.6 210.9,69.4 211.3,68.3 C211.7,67.2 212.2,66.2 212.9,65.4 C213.6,64.6 214.4,63.9 215.4,63.4 C216.3,62.9 217.4,62.7 218.5,62.7 C219.6,62.7 220.6,62.9 221.5,63.4 C222.4,63.9 223.3,64.6 223.9,65.4 C224.6,66.2 225.1,67.2 225.5,68.3 C225.9,69.4 226.1,70.6 226.1,71.8 C226.2,73.2 226,74.4 225.6,75.5" id="Shape" fill="#03475E"></path>
                <path d="M259.5,61.9 C258.4,60.8 257.1,59.9 255.7,59.2 C254.2,58.5 252.7,58.2 251.1,58.2 C249.4,58.2 247.7,58.6 246.2,59.3 C244.7,60 243.3,61 242.2,62.2 C241.1,63.4 240.2,64.9 239.5,66.6 C238.8,68.3 238.5,70 238.5,71.9 C238.5,73.8 238.8,75.6 239.5,77.3 C240.2,79 241.1,80.4 242.2,81.6 C243.3,82.8 244.7,83.8 246.2,84.5 C247.7,85.2 249.4,85.6 251.1,85.6 C251.8,85.6 252.6,85.5 253.3,85.4 C254.1,85.3 254.9,85.1 255.6,84.8 C256.4,84.5 257.1,84.2 257.8,83.9 C258.5,83.5 259.1,83.2 259.6,82.7 C259.8,82.6 260,82.4 260.2,82.1 C260.4,81.9 260.5,81.6 260.5,81.4 C260.5,81.3 260.4,81.1 260.3,80.8 L259.2,79 C259.1,78.9 259,78.8 258.8,78.7 C258.6,78.6 258.4,78.6 258.3,78.6 C258.1,78.6 257.8,78.7 257.6,78.8 C257.3,78.9 257.1,79.1 256.9,79.2 C256.6,79.6 256.2,79.9 255.7,80.1 C255.2,80.3 254.8,80.5 254.2,80.7 C253.7,80.9 253.2,81 252.6,81 C252.1,81.1 251.6,81.1 251.1,81.1 C250.1,81.1 249.2,80.9 248.3,80.6 C247.4,80.2 246.6,79.7 245.9,79.1 C245.2,78.5 244.6,77.7 244.1,76.8 C243.6,75.9 243.3,74.9 243.1,73.9 L259.5,73.9 C260,73.9 260.4,73.9 260.9,73.8 C261.3,73.7 261.7,73.6 262,73.5 C262.3,73.3 262.6,73.1 262.7,72.7 C262.9,72.4 263,72 263,71.4 L263,70.8 C263,69.1 262.7,67.4 262,65.9 C261.5,64.4 260.6,63.1 259.5,61.9 L259.5,61.9 Z M243.4,70 C243.6,69 244,68.1 244.5,67.2 C245,66.3 245.6,65.5 246.2,64.9 C246.9,64.2 247.6,63.7 248.4,63.3 C249.2,62.9 250.1,62.7 251,62.7 C251.9,62.7 252.8,62.9 253.6,63.3 C254.4,63.7 255.2,64.2 255.9,64.9 C256.6,65.6 257.2,66.3 257.6,67.2 C258.1,68.1 258.4,69 258.6,70 L243.4,70 Z" id="Shape" fill="#03475E"></path>
                <path d="M294.4,58.9 L292.7,58.9 C292.2,58.9 291.8,59 291.6,59.3 C291.4,59.5 291.3,59.9 291.3,60.3 L291.3,62.5 C290.9,61.9 290.4,61.4 289.9,60.9 C289.4,60.4 288.8,60 288.1,59.6 C287.4,59.2 286.7,58.9 285.9,58.7 C285.1,58.5 284.3,58.4 283.3,58.4 C281.6,58.4 279.9,58.8 278.4,59.5 C276.9,60.2 275.6,61.2 274.4,62.4 C273.3,63.6 272.4,65.1 271.8,66.8 C271.2,68.5 270.8,70.2 270.8,72.1 C270.8,74 271.1,75.8 271.7,77.4 C272.3,79.1 273.2,80.5 274.3,81.7 C275.4,82.9 276.7,83.9 278.2,84.6 C279.7,85.3 281.4,85.7 283.2,85.7 C284,85.7 284.8,85.6 285.6,85.3 C286.4,85 287.1,84.7 287.8,84.2 C288.5,83.8 289.1,83.3 289.7,82.7 C290.3,82.2 290.8,81.6 291.2,81.1 L291.2,84.3 C291.2,85.4 291,86.5 290.5,87.4 C290,88.3 289.4,89.1 288.6,89.7 C287.8,90.3 286.9,90.8 285.9,91.1 C284.9,91.4 283.9,91.6 283,91.6 C282.1,91.6 281.3,91.5 280.4,91.2 C279.5,90.9 278.8,90.5 278.1,90.1 C278,90 277.9,90 277.8,90 C277.7,90 277.6,89.9 277.5,89.9 C277.3,89.9 277.1,89.9 277,90 C276.9,90.1 276.8,90.1 276.7,90.3 L275.2,92.8 C275.2,92.8 275.1,92.9 275.1,93.1 C275,93.2 275,93.3 275,93.4 C275,93.6 275,93.7 275.1,93.8 C275.2,93.9 275.4,94 275.6,94.1 L275.6,94.1 C276.7,94.8 277.8,95.3 278.9,95.6 C280.1,95.9 281.4,96.1 282.9,96.1 C284.7,96.1 286.4,95.8 288,95.3 C289.6,94.7 291,93.9 292.1,92.8 C293.3,91.7 294.2,90.3 294.8,88.6 C295.5,86.9 295.8,84.9 295.8,82.7 L295.8,60.4 C295.8,60 295.6,59.6 295.3,59.4 C295.1,59 294.8,58.9 294.4,58.9 M290.5,75.6 C290.1,76.7 289.5,77.7 288.7,78.5 C288,79.3 287.1,80 286.2,80.4 C285.2,80.9 284.3,81.1 283.2,81.1 C282.1,81.1 281.1,80.9 280.1,80.4 C279.1,79.9 278.3,79.3 277.6,78.4 C276.9,77.6 276.3,76.6 275.9,75.5 C275.5,74.4 275.3,73.2 275.3,71.9 C275.3,70.7 275.5,69.5 275.9,68.4 C276.3,67.3 276.9,66.3 277.6,65.5 C278.3,64.7 279.2,64 280.1,63.5 C281.1,63 282.1,62.8 283.2,62.8 C284.3,62.8 285.3,63.1 286.3,63.5 C287.3,64 288.1,64.7 288.8,65.5 C289.5,66.4 290.1,67.4 290.5,68.5 C290.9,69.6 291.1,70.8 291.1,72.1 C291.2,73.4 291,74.5 290.5,75.6" id="Shape" fill="#03475E"></path>
                <path d="M330.2,59.1 C329.9,58.9 329.6,58.7 329.2,58.7 L327.6,58.7 C327.1,58.7 326.8,58.8 326.6,59 C326.4,59.2 326.3,59.6 326.3,60 L326.1,62.7 C325.7,62.1 325.2,61.6 324.8,61 C324.3,60.5 323.8,60 323.1,59.6 C322.5,59.2 321.7,58.9 320.9,58.6 C320.1,58.4 319.1,58.2 318,58.2 C316.1,58.2 314.4,58.6 312.8,59.3 C311.2,60 309.9,61 308.7,62.2 C307.6,63.4 306.7,64.9 306.1,66.5 C305.5,68.2 305.2,69.9 305.2,71.8 C305.2,73.7 305.5,75.5 306.1,77.1 C306.7,78.8 307.6,80.2 308.7,81.4 C309.8,82.6 311.2,83.6 312.8,84.3 C314.4,85 316.1,85.4 318,85.4 C319.1,85.4 320,85.3 320.8,85.1 C321.6,84.9 322.4,84.6 323,84.2 C323.6,83.8 324.2,83.3 324.7,82.8 C325.2,82.3 325.6,81.7 326.1,81.1 L326.1,83.6 C326.1,84 326.2,84.3 326.4,84.6 C326.6,84.9 326.9,85 327.4,85 L329.1,85 C329.5,85 329.8,84.9 330.1,84.7 C330.4,84.5 330.5,84.2 330.5,83.8 L330.5,60 C330.6,59.7 330.5,59.3 330.2,59.1 M325.7,75.7 C325.3,76.8 324.8,77.8 324.1,78.6 C323.4,79.4 322.6,80 321.6,80.5 C320.6,81 319.5,81.2 318.2,81.2 C316.9,81.2 315.8,81 314.8,80.5 C313.8,80 312.9,79.4 312.2,78.5 C311.5,77.7 310.9,76.7 310.5,75.6 C310.1,74.5 309.9,73.3 309.9,72 C309.9,70.8 310.1,69.6 310.5,68.5 C310.9,67.4 311.4,66.4 312.2,65.6 C312.9,64.8 313.8,64.1 314.8,63.6 C315.8,63.1 317,62.9 318.3,62.9 C319.6,62.9 320.8,63.2 321.8,63.6 C322.8,64.1 323.7,64.8 324.3,65.6 C325,66.4 325.5,67.4 325.9,68.5 C326.2,69.6 326.4,70.8 326.4,72.1 C326.2,73.4 326,74.6 325.7,75.7" id="Shape" fill="#03475E"></path>
                <path d="M125.4,82.1 L105.2,41.8 C105.2,41.8 105.2,41.8 105.2,41.8 L85,1.5 C85,1.5 85,1.5 85,1.4 C85,1.4 85,1.3 84.9,1.3 C84.9,1.3 84.9,1.3 84.9,1.3 C84.9,1.3 84.9,1.2 84.8,1.2 C84.8,1.2 84.7,1.1 84.7,1.1 C84.7,1.1 84.6,1 84.6,1 C84.6,1 84.5,0.9 84.5,0.9 C84.5,0.9 84.4,0.9 84.4,0.8 C84.4,0.8 84.3,0.7 84.3,0.7 C84.3,0.7 84.2,0.7 84.2,0.6 C84.2,0.6 84.1,0.6 84.1,0.5 C84.1,0.5 84,0.5 84,0.5 C84,0.5 83.9,0.5 83.8,0.4 C83.8,0.4 83.7,0.4 83.7,0.4 C83.6,0.4 83.6,0.4 83.5,0.4 C83.5,0.4 83.4,0.4 83.4,0.4 C83.3,0.4 83.2,0.4 83.1,0.4 L83.1,0.4 L43,0.4 C42.9,0.4 42.8,0.4 42.7,0.4 C42.7,0.4 42.6,0.4 42.6,0.4 C42.5,0.4 42.5,0.4 42.4,0.4 C42.4,0.4 42.3,0.4 42.3,0.4 C42.3,0.4 42.2,0.4 42.2,0.5 C42.2,0.5 42.1,0.5 42.1,0.6 C42.1,0.6 42,0.6 42,0.7 C42,0.7 41.9,0.7 41.9,0.8 C41.9,0.8 41.8,0.9 41.8,0.9 C41.8,0.9 41.7,0.9 41.7,1 C41.7,1 41.6,1.1 41.6,1.1 C41.6,1.1 41.5,1.2 41.5,1.2 C41.5,1.2 41.4,1.3 41.4,1.3 C41.4,1.3 41.4,1.4 41.3,1.4 C41.3,1.4 41.3,1.4 41.3,1.4 C41.3,1.4 41.3,1.5 41.3,1.5 C41.3,1.5 41.3,1.5 41.3,1.6 L21,41.8 C21,41.8 21,41.8 21,41.8 L0.8,82.1 C0.5,82.7 0.5,83.5 0.9,84.1 C1.3,84.7 1.9,85.1 2.6,85.1 L43,85.1 L43,85.1 C43,85.1 43,85.1 43,85.1 C43.1,85.1 43.2,85.1 43.3,85.1 C43.3,85.1 43.4,85.1 43.4,85.1 C43.5,85.1 43.5,85.1 43.6,85.1 C43.6,85.1 43.7,85.1 43.7,85.1 C43.8,85.1 43.8,85.1 43.9,85 C43.9,85 44,85 44,85 C44,85 44.1,85 44.1,84.9 C44.1,84.9 44.2,84.9 44.2,84.8 C44.2,84.8 44.3,84.7 44.3,84.7 C44.3,84.7 44.4,84.7 44.4,84.6 C44.4,84.6 44.5,84.5 44.5,84.5 C44.5,84.5 44.5,84.5 44.6,84.4 C44.6,84.4 44.7,84.3 44.7,84.3 C44.7,84.3 44.7,84.2 44.8,84.2 C44.8,84.2 44.8,84.2 44.8,84.2 C44.8,84.2 44.8,84.1 44.9,84.1 C44.9,84.1 44.9,84.1 44.9,84 L63.3,47.3 L81.7,84 C81.7,84 81.7,84 81.7,84.1 C81.7,84.1 81.7,84.2 81.8,84.2 C81.8,84.2 81.8,84.2 81.8,84.2 C81.8,84.2 81.8,84.3 81.9,84.3 C81.9,84.3 82,84.4 82,84.4 C82,84.4 82,84.5 82.1,84.5 C82.1,84.5 82.2,84.6 82.2,84.6 C82.2,84.6 82.3,84.6 82.3,84.7 C82.3,84.7 82.4,84.8 82.4,84.8 C82.4,84.8 82.5,84.8 82.5,84.9 C82.5,84.9 82.6,85 82.6,85 C82.6,85 82.7,85 82.7,85 C82.8,85 82.8,85 82.9,85.1 C82.9,85.1 83,85.1 83,85.1 C83.1,85.1 83.1,85.1 83.2,85.1 C83.2,85.1 83.3,85.1 83.3,85.1 C83.4,85.1 83.5,85.1 83.6,85.1 C83.6,85.1 83.6,85.1 83.6,85.1 L83.6,85.1 L123.9,85.1 C124.6,85.1 125.2,84.7 125.6,84.1 C125.7,83.5 125.8,82.8 125.4,82.1 L125.4,82.1 Z M66.4,40.7 L83.3,6.9 L100.2,40.7 L66.4,40.7 Z M80,4.4 L75.3,13.8 L63.1,38.2 L46.2,4.4 L80,4.4 L80,4.4 Z M43,6.9 L53.1,27.1 L59.9,40.7 L26.1,40.7 L43,6.9 Z M22.8,47.2 L39.7,81 L5.9,81 L22.8,47.2 Z M43,78.5 L26.1,44.7 L59.9,44.7 L43,78.5 Z M100.2,44.7 L83.3,78.5 L66.4,44.7 L100.2,44.7 Z M86.6,81 L103.5,47.2 L120.4,81 L86.6,81 Z" id="Shape" fill="#FF0054"></path>
            </g>
        </g>
    </g>
</svg>